<?xml version="1.0" standalone="no"?>
<!DOCTYPE svg PUBLIC "-//W3C//DTD SVG 20010904//EN"
 "http://www.w3.org/TR/2001/REC-SVG-20010904/DTD/svg10.dtd">
<svg version="1.0" xmlns="http://www.w3.org/2000/svg"
 width="1024.000000pt" height="1024.000000pt" viewBox="0 0 1024.000000 1024.000000"
 preserveAspectRatio="xMidYMid meet">

<g transform="translate(0.000000,1024.000000) scale(0.100000,-0.100000)"
fill="#000000" stroke="none">
<path d="M6792 7922 c-77 -18 -142 -59 -142 -91 0 -9 14 -30 30 -46 19 -19 30
-39 30 -57 0 -16 -13 -52 -30 -81 -16 -30 -30 -59 -30 -65 0 -7 -14 -41 -31
-77 -46 -99 -173 -191 -193 -140 -7 19 -50 20 -65 1 -17 -21 -101 -254 -101
-282 0 -13 10 -34 21 -45 19 -19 29 -21 77 -15 31 4 76 18 100 31 25 14 53 25
63 25 20 0 92 -97 83 -112 -3 -4 -23 -8 -45 -8 -56 0 -153 -47 -219 -107 -143
-129 -194 -154 -267 -129 -26 9 -63 16 -84 16 -69 0 -97 -71 -68 -173 9 -34 8
-40 -13 -57 -13 -10 -48 -31 -78 -46 -47 -23 -71 -28 -186 -34 -118 -6 -137
-10 -198 -38 -97 -46 -207 -40 -314 16 -178 92 -155 85 -307 92 -206 10 -253
36 -294 162 -38 116 -124 177 -281 197 -49 7 -91 17 -100 27 -12 12 -15 41
-15 138 0 122 -1 125 -30 168 -24 34 -44 48 -92 67 -58 23 -62 26 -68 64 -4
21 -19 53 -34 69 -22 25 -37 32 -80 36 -52 5 -52 4 -100 -45 -27 -28 -68 -64
-92 -81 -54 -37 -73 -69 -67 -117 4 -33 2 -36 -16 -30 -12 4 -53 9 -92 12 -68
5 -71 5 -101 -25 -30 -30 -53 -94 -53 -145 0 -27 -16 -37 -59 -37 -34 0 -131
-31 -164 -53 -17 -11 -27 -30 -32 -57 -6 -34 -3 -47 18 -78 32 -50 41 -94 27
-137 -12 -37 -62 -85 -88 -85 -35 0 -93 -22 -121 -45 -22 -19 -41 -25 -75 -25
-53 0 -114 -22 -122 -45 -8 -20 -26 -19 -69 6 -49 29 -98 26 -180 -12 -101
-47 -152 -85 -175 -129 -38 -75 -18 -137 55 -169 47 -21 48 -23 45 -84 -2 -45
16 -104 41 -131 11 -11 19 -34 19 -50 1 -40 23 -102 45 -126 10 -11 38 -29 63
-41 83 -40 142 -111 142 -168 0 -10 9 -35 19 -57 23 -47 15 -62 -41 -71 -22
-3 -42 -13 -46 -21 -10 -26 16 -191 35 -225 12 -21 40 -43 81 -64 34 -17 83
-50 109 -72 34 -30 54 -41 79 -41 18 0 36 5 39 10 10 17 34 11 56 -12 103
-110 188 -189 220 -204 22 -9 39 -21 39 -25 0 -18 80 -60 165 -88 50 -16 105
-35 123 -42 25 -11 39 -11 64 -1 37 14 37 14 40 -22 5 -58 89 -51 104 8 7 31
20 36 72 26 52 -9 82 -29 122 -79 18 -22 44 -44 59 -50 43 -18 129 9 234 73
95 57 126 65 172 44 18 -8 25 -19 25 -40 0 -27 1 -28 54 -28 60 0 96 -21 115
-68 17 -40 0 -77 -74 -167 -60 -73 -75 -101 -75 -141 0 -36 42 -74 81 -74 34
0 91 -37 109 -70 7 -12 7 -27 0 -45 -8 -20 -6 -29 10 -45 11 -11 29 -20 40
-20 13 0 24 -11 34 -33 17 -42 54 -67 90 -60 23 5 35 -2 75 -46 50 -54 91 -68
91 -31 0 11 -5 29 -12 40 -10 15 -9 24 2 44 19 37 43 32 84 -16 45 -52 87 -72
112 -54 16 12 16 17 4 47 -7 19 -19 41 -27 50 -27 32 -10 49 51 49 27 0 38 -7
61 -40 15 -22 35 -42 45 -45 23 -7 70 14 70 32 0 7 5 13 10 13 6 0 10 -12 10
-26 0 -34 35 -91 61 -99 11 -4 24 -18 30 -32 12 -31 11 -445 -1 -498 -5 -24
-21 -51 -39 -67 -39 -34 -39 -44 -1 -63 17 -9 30 -22 30 -29 0 -18 20 -25 45
-15 11 4 36 8 55 9 19 0 53 9 75 20 22 11 44 19 48 20 15 0 -5 -21 -27 -30
l-21 -9 21 0 c28 -1 45 21 54 69 7 39 3 48 -16 32 -5 -5 -34 -17 -65 -27 -53
-17 -57 -17 -82 -1 -22 15 -24 21 -14 37 11 18 23 22 105 34 49 8 53 19 12 40
-33 17 -81 20 -96 5 -12 -12 -74 -31 -74 -23 0 4 16 21 36 39 41 38 110 54
151 35 13 -6 30 -8 36 -5 7 4 9 3 4 -1 -4 -5 7 -14 25 -19 l33 -11 8 95 c4 52
9 142 11 200 6 223 49 278 321 415 72 36 138 65 148 65 41 0 150 140 132 170
-4 6 8 7 27 4 l33 -5 -32 17 c-36 18 -44 52 -18 74 16 13 21 35 6 26 -4 -3
-19 6 -32 20 -17 18 -30 23 -49 19 -15 -3 -38 -1 -53 4 -15 6 -42 11 -62 13
-19 1 -35 5 -35 8 0 12 32 50 43 50 6 0 23 12 38 26 41 39 108 38 150 -4 27
-26 30 -34 22 -58 -8 -25 -6 -31 21 -49 28 -19 31 -27 34 -79 3 -50 1 -58 -12
-53 -20 8 -21 -2 -2 -17 8 -6 16 -33 18 -61 l3 -50 -50 -11 c-46 -9 -48 -11
-29 -22 13 -7 24 -24 26 -42 6 -39 -10 -39 -23 0 -12 32 -39 41 -39 14 0 -13
-7 -15 -29 -11 -28 6 -59 -12 -45 -26 4 -3 4 -21 0 -39 -6 -30 -9 -33 -45 -34
-30 -2 -38 2 -37 15 1 9 -8 17 -21 19 -16 2 -23 -2 -23 -12 0 -9 -4 -16 -10
-16 -5 0 -10 -11 -10 -25 0 -29 2 -28 -39 -14 -30 11 -35 9 -66 -21 -18 -18
-38 -30 -43 -26 -17 10 -105 -57 -136 -103 -35 -53 -43 -112 -28 -220 8 -55
18 -85 40 -115 45 -64 76 -128 74 -158 -1 -15 2 -29 7 -32 9 -6 71 111 94 179
20 58 42 56 107 -10 36 -36 62 -55 78 -55 36 0 91 38 98 67 9 34 -13 53 -67
60 -56 7 -111 35 -139 70 -18 23 -20 35 -15 73 4 25 11 49 16 55 15 15 10 28
-6 15 -13 -11 -14 -10 -9 4 3 9 16 16 28 16 11 0 29 7 40 15 10 7 44 17 75 21
46 5 61 12 82 38 25 29 31 31 96 32 39 1 75 4 82 8 16 10 14 53 -4 63 -12 7
-12 13 -2 33 15 30 52 50 94 50 17 0 35 5 38 10 3 5 -1 10 -9 10 -17 0 -66 45
-66 60 0 15 38 50 54 50 8 0 27 18 43 39 15 22 37 42 48 45 31 8 101 71 114
104 7 15 22 35 34 43 57 38 75 65 82 123 6 44 14 64 32 80 47 40 48 91 1 78
-14 -3 -19 -1 -14 6 4 7 17 12 28 12 24 0 32 9 93 103 47 70 52 90 34 130 -9
19 -7 31 6 57 10 18 14 42 11 56 -7 27 -52 54 -91 54 -31 0 -33 16 -2 24 23 5
47 42 47 71 0 7 -21 39 -47 71 -27 32 -75 99 -108 148 -50 76 -68 95 -107 114
-31 14 -48 29 -48 40 0 21 83 103 162 161 86 62 91 112 12 139 -60 21 -132 11
-193 -26 -28 -18 -55 -32 -59 -32 -4 0 -14 16 -21 35 -9 27 -26 42 -72 67 -51
29 -80 60 -67 74 3 2 26 8 52 13 41 8 57 18 105 70 31 34 62 61 69 61 6 0 30
25 53 56 36 50 44 55 67 49 15 -4 29 -9 31 -11 3 -2 -12 -44 -32 -94 -45 -108
-48 -157 -13 -166 14 -3 34 -3 44 1 27 8 148 95 193 139 22 21 51 37 75 42 62
11 148 75 201 149 l22 30 38 -21 c88 -48 163 -23 163 55 0 47 8 54 88 77 43
11 76 28 100 51 l35 33 -6 130 c-7 123 -6 130 13 140 14 7 26 8 39 0 30 -15
65 -12 87 8 14 14 26 53 43 148 13 71 34 169 47 217 29 106 29 119 6 140 -36
33 -98 14 -204 -63 -60 -44 -111 -62 -144 -49 -15 5 -24 23 -33 62 -17 75 -70
135 -163 182 -39 19 -82 35 -95 35 -37 0 -69 39 -78 95 -9 65 -41 147 -103
270 -55 111 -85 145 -152 173 -66 29 -233 36 -328 14z m-2938 -577 c8 -8 22
-39 30 -69 18 -60 47 -86 96 -86 40 0 77 -36 86 -86 4 -21 1 -73 -6 -115 -11
-71 -11 -81 6 -116 24 -49 70 -71 167 -82 132 -15 198 -66 238 -186 8 -22 34
-61 59 -86 60 -62 116 -80 290 -88 143 -7 149 -9 280 -84 63 -36 151 -59 230
-61 57 -1 74 3 130 33 63 34 70 35 210 41 152 7 159 9 263 69 41 24 59 40 63
59 3 15 8 33 10 41 2 7 -3 40 -12 73 -9 32 -14 61 -11 64 3 3 34 -4 70 -15 84
-26 124 -17 230 52 111 72 115 74 101 56 -14 -17 -10 -92 5 -97 6 -2 11 7 11
22 0 29 17 36 95 37 73 2 105 -2 105 -12 0 -5 7 -9 15 -9 35 0 65 -23 65 -52
0 -15 -5 -28 -10 -28 -6 0 -22 -11 -35 -24 -28 -28 -80 -39 -96 -19 -16 19
-24 17 -64 -18 -39 -35 -42 -44 -19 -66 11 -11 27 -14 57 -10 23 3 48 3 54 -1
18 -11 -9 -64 -47 -93 -17 -13 -44 -36 -58 -50 -15 -15 -45 -37 -67 -51 -33
-20 -45 -22 -68 -14 -22 8 -35 6 -62 -8 -26 -14 -46 -17 -81 -12 -44 6 -51 3
-116 -41 -41 -28 -67 -52 -64 -60 3 -8 -12 -21 -39 -33 -25 -11 -45 -27 -45
-35 0 -10 -11 -15 -32 -16 l-33 -1 35 -8 c19 -5 55 -13 79 -20 56 -14 77 -7
104 38 21 31 28 36 68 37 24 2 60 12 79 23 44 25 96 37 105 22 3 -5 -7 -31
-24 -56 -17 -25 -31 -54 -31 -64 0 -12 -12 -26 -30 -35 -17 -9 -49 -36 -71
-60 -56 -61 -82 -66 -121 -26 -17 17 -41 31 -54 31 -13 0 -64 -18 -113 -40
-50 -23 -97 -38 -107 -35 -11 3 3 -5 29 -19 82 -42 99 -68 55 -82 -21 -6 -21
-8 -5 -13 17 -6 16 -9 -7 -32 -51 -51 -242 -110 -260 -80 -4 5 0 12 6 14 7 3
4 6 -7 6 -31 1 -102 -35 -114 -57 -6 -11 -8 -27 -6 -35 3 -7 -1 -20 -10 -27
-12 -10 -15 -10 -15 4 0 9 -5 16 -11 16 -7 0 -9 -9 -6 -21 5 -18 -2 -14 -35
17 l-42 39 35 -43 c42 -53 80 -126 68 -130 -13 -5 -100 47 -121 72 -19 23 -24
15 -8 -15 16 -28 -5 -23 -24 6 -9 14 -23 25 -30 25 -8 0 -31 19 -52 43 -20 23
-33 35 -29 27 4 -8 16 -24 26 -35 10 -11 27 -42 39 -68 12 -26 26 -47 32 -47
7 0 6 6 -2 15 -7 9 -10 19 -6 23 12 11 51 -44 62 -88 10 -35 9 -42 -10 -59
-23 -21 -64 -30 -84 -18 -25 16 -70 -30 -87 -91 -20 -68 -73 -123 -144 -148
-25 -8 -54 -20 -63 -25 -45 -23 -44 10 1 48 14 13 21 23 15 23 -6 0 -14 -3
-18 -7 -3 -4 -15 -8 -26 -10 -14 -2 -20 3 -20 17 0 11 -9 29 -20 40 -11 11
-20 29 -20 39 0 12 -9 21 -25 25 -14 4 -25 14 -25 22 0 13 -6 15 -27 9 -15 -3
-31 -11 -34 -17 -3 -5 -9 1 -12 14 -6 23 -7 23 -20 3 -19 -27 -19 -59 0 -43
19 16 28 2 28 -45 0 -37 3 -42 32 -50 25 -8 35 -19 49 -56 9 -25 24 -57 33
-70 15 -23 15 -23 -7 -10 -12 8 -22 19 -22 26 0 28 -23 60 -39 56 -19 -5 -71
32 -71 50 0 7 -25 38 -55 71 l-55 59 -70 -5 -71 -5 -27 50 c-33 63 -74 107
-99 107 -14 -1 -11 -4 9 -16 15 -8 32 -23 38 -34 13 -24 13 -33 -1 -24 -6 3
-3 -5 6 -20 9 -14 21 -24 25 -21 4 3 10 -4 13 -15 6 -24 10 -24 -41 0 -22 11
-46 20 -53 20 -15 0 -38 -30 -39 -51 0 -9 -8 -20 -17 -24 -16 -7 -15 -9 6 -14
43 -11 37 -31 -11 -33 -43 -1 -43 -1 -6 -5 20 -2 47 1 60 8 l23 12 -24 -27
c-14 -14 -20 -26 -14 -26 6 0 25 16 42 35 29 34 67 48 58 23 -2 -7 -11 -12
-20 -10 -25 4 -30 -16 -5 -24 15 -4 25 -1 35 12 19 25 17 28 -23 48 -20 9 -34
19 -31 23 4 3 23 -4 43 -16 20 -12 39 -20 41 -17 14 14 214 -117 210 -137 -1
-7 3 -11 10 -10 7 2 10 -3 7 -11 -3 -8 16 -35 45 -65 58 -58 63 -82 24 -98
-25 -10 -26 -11 -6 -12 12 -1 25 -6 28 -11 4 -7 -13 -9 -49 -7 -53 3 -58 6
-141 81 -53 49 -88 89 -95 109 l-10 32 3 -32 c3 -24 0 -30 -8 -23 -8 6 -27 5
-56 -4 -37 -12 -40 -14 -16 -15 18 -1 27 -6 27 -18 1 -10 16 -48 34 -85 18
-38 28 -68 24 -68 -17 0 -48 21 -48 31 0 6 -19 28 -41 50 -39 37 -44 40 -88
34 -41 -5 -43 -4 -21 7 14 6 27 13 28 14 12 8 -14 47 -38 59 -37 19 -54 19
-46 0 6 -18 -14 -19 -64 -5 -39 11 -63 -2 -41 -22 12 -11 13 -9 7 7 -4 11 22
-9 58 -45 66 -65 86 -110 49 -108 -10 0 -26 -3 -35 -6 -11 -5 -23 -1 -34 12
-15 18 -27 20 -98 18 -45 -2 -71 -2 -58 1 18 4 20 7 8 18 -23 24 -81 43 -99
34 -22 -13 -10 -42 15 -35 11 2 17 2 14 -1 -8 -8 44 -43 64 -43 8 0 34 -10 58
-22 29 -16 42 -29 41 -43 0 -11 -3 -14 -6 -7 -2 6 -10 9 -16 5 -7 -4 -57 -9
-111 -10 -95 -2 -124 -11 -109 -36 3 -4 -17 -7 -44 -5 l-48 3 3 38 c2 20 -1
37 -6 37 -5 0 -7 -11 -4 -25 5 -28 -9 -33 -28 -10 -22 26 -97 62 -146 70 -61
9 -96 27 -112 57 -16 30 -52 35 -52 7 0 -14 7 -19 26 -19 18 0 25 -4 21 -14
-3 -7 0 -19 6 -26 7 -7 -3 -5 -21 4 -18 9 -56 18 -85 19 -29 1 -56 7 -62 13
-13 15 -128 56 -120 44 8 -12 80 -50 95 -50 6 0 36 -16 67 -36 67 -43 78 -45
209 -44 l102 1 4 -29 c7 -47 -14 -67 -68 -64 -26 1 -59 8 -74 16 -15 7 -58 19
-94 27 -56 11 -71 18 -91 45 -14 18 -71 64 -128 101 -107 71 -159 112 -142
114 68 5 79 3 93 -18 15 -24 49 -33 36 -10 -4 6 14 -7 40 -31 41 -38 51 -42
78 -37 24 6 29 4 22 -6 -6 -12 -5 -12 9 0 9 7 17 22 17 32 0 20 -16 26 -22 9
-5 -16 -71 14 -74 33 -2 15 0 15 22 0 14 -9 27 -13 30 -10 12 12 -69 48 -116
52 -27 1 -65 12 -84 23 -18 11 -43 23 -55 27 -31 9 -84 77 -68 87 14 9 -8 28
-33 28 -9 0 -27 7 -40 16 l-25 17 21 -22 c18 -19 19 -27 10 -66 -12 -50 -24
-55 -52 -24 -19 22 -19 22 4 10 13 -7 25 -11 26 -9 9 11 14 68 6 68 -6 0 -10
-9 -10 -20 0 -11 -5 -20 -11 -20 -6 0 -8 9 -4 20 7 22 5 23 -20 14 -9 -4 -12
-10 -7 -13 6 -4 5 -11 -3 -18 -10 -9 -17 -8 -31 3 -18 15 -18 15 1 10 16 -5
20 -1 20 22 0 15 4 39 8 55 5 16 3 27 -3 27 -5 0 -10 -8 -11 -17 0 -14 -2 -13
-9 5 -13 31 -30 28 -26 -5 2 -16 1 -22 -1 -14 -7 21 -29 41 -45 41 -26 0 -58
31 -58 56 0 21 5 24 33 24 60 0 72 35 37 111 -18 41 -18 44 -2 51 35 14 70 7
110 -22 44 -32 58 -35 82 -20 13 8 12 11 -5 25 -11 9 -15 18 -10 21 26 12 39
24 32 30 -10 10 -73 9 -109 -1 -19 -5 -28 -3 -28 4 0 6 7 11 16 11 8 0 12 5 9
10 -3 6 -15 10 -26 10 -13 0 -18 -4 -13 -12 5 -8 -5 -9 -36 -4 -53 8 -60 12
-60 36 0 10 -4 22 -10 25 -5 3 -10 12 -10 18 0 7 7 4 14 -5 14 -19 43 -23 65
-9 11 7 9 10 -9 16 -26 8 -49 13 -67 14 -7 1 -13 7 -13 14 0 20 -26 40 -110
86 -41 22 -69 41 -61 41 23 0 91 -23 87 -29 -6 -10 116 -12 148 -3 l29 8 -29
27 c-32 30 -71 35 -88 11 -10 -13 -19 -14 -56 -4 -62 16 -115 66 -134 128 -7
21 -5 22 43 22 58 0 69 11 47 45 -15 22 -24 25 -80 25 -34 0 -65 3 -68 6 -3 3
0 27 7 53 12 46 11 50 -11 74 -13 14 -41 35 -64 48 -53 30 -53 56 0 102 35 30
137 77 167 77 6 0 37 -14 71 -31 74 -38 105 -35 129 15 18 38 35 46 107 46 39
0 55 6 80 28 19 17 54 33 88 40 101 23 177 117 166 206 -2 20 0 36 5 36 12 0
-1 40 -25 73 -39 55 -1 97 88 97 53 0 109 21 122 47 5 10 12 44 15 76 9 94 24
101 163 70 l77 -17 18 23 c22 27 24 59 8 95 -15 32 0 52 58 77 24 10 43 22 43
26 0 4 9 23 20 41 21 35 49 41 74 17z m3386 -420 c17 -53 38 -102 47 -110 8
-9 33 -15 61 -15 26 0 70 -3 99 -6 l52 -7 -57 -43 c-31 -24 -68 -52 -82 -63
l-24 -19 37 -120 c20 -67 37 -123 37 -126 0 -4 -32 17 -71 46 -39 29 -88 65
-109 80 l-37 27 -103 -69 c-56 -39 -104 -70 -106 -70 -1 0 15 53 37 117 21 64
36 120 31 123 -4 3 -42 33 -85 65 -43 32 -80 61 -82 64 -1 3 49 7 113 9 64 2
119 5 123 7 3 3 19 39 34 82 39 110 44 123 49 123 2 0 19 -43 36 -95z m-1690
-1415 c-20 -13 -33 -13 -25 0 3 6 14 10 23 10 15 0 15 -2 2 -10z m124 -142
c33 -117 41 -135 84 -174 l44 -42 -39 -13 c-47 -16 -214 -13 -225 4 -12 19
-10 22 35 53 35 25 45 40 60 90 9 33 17 68 17 77 0 20 19 23 24 5z m577 -39
c37 -38 55 -50 73 -47 30 4 66 -28 66 -59 0 -23 -31 -63 -50 -63 -5 0 -10 -9
-10 -21 0 -14 -5 -19 -15 -16 -8 4 -17 2 -19 -2 -3 -5 -25 -7 -49 -5 -43 3
-44 3 -56 -35 -25 -85 -13 -108 76 -149 102 -47 134 -77 140 -134 4 -34 1 -55
-11 -72 -9 -14 -16 -39 -16 -57 0 -40 -31 -83 -72 -99 -43 -17 -86 -58 -102
-95 -13 -31 -120 -131 -164 -154 -26 -14 -46 -6 -38 15 4 12 2 12 -14 4 -16
-8 -18 -8 -14 4 3 9 14 18 24 21 11 3 20 17 22 32 2 21 11 29 43 38 40 12 40
12 15 23 -29 12 -100 84 -100 100 0 6 9 16 20 22 11 6 20 17 20 25 0 8 -9 15
-20 15 -13 0 -20 7 -20 20 0 13 14 26 44 40 76 34 104 18 49 -27 l-28 -22 60
0 c49 -1 69 5 110 29 28 16 57 30 64 30 26 0 91 52 91 72 0 33 -31 75 -74 99
-59 33 -139 89 -153 107 -7 9 -13 26 -13 38 0 36 48 175 75 215 14 21 25 41
25 44 0 15 -80 -8 -120 -33 -2 -2 2 -7 10 -12 18 -11 5 -26 -30 -35 -36 -9
-80 27 -80 65 0 36 44 90 74 90 12 0 37 9 56 19 19 11 41 20 48 20 7 1 36 -22
63 -50z m262 -70 c22 -10 24 -16 20 -53 l-5 -41 20 31 c11 18 25 35 30 38 16
10 72 -5 72 -19 0 -14 28 -29 48 -26 6 1 12 -3 12 -9 0 -5 -4 -10 -10 -10 -5
0 -10 -5 -10 -11 0 -7 10 -5 26 5 27 19 65 18 71 -1 2 -6 -11 -16 -30 -22 -36
-12 -74 -46 -60 -54 4 -2 38 -3 75 -2 61 2 66 0 58 -15 -7 -12 -4 -30 9 -56
19 -39 19 -39 -1 -47 -11 -4 -30 -7 -42 -6 -47 4 -53 0 -48 -33 4 -32 4 -32
-13 -13 -14 17 -16 18 -11 2 3 -11 0 -20 -9 -23 -10 -4 -13 -14 -9 -33 l6 -26
-20 24 c-19 24 -20 24 -26 4 -4 -12 -15 -23 -26 -26 -16 -4 -18 0 -15 25 3 25
1 29 -15 25 -12 -3 -21 3 -29 20 -15 32 -14 33 7 26 14 -5 13 -2 -4 17 -27 28
-61 20 -76 -18 -9 -25 -11 -26 -18 -7 -9 24 -2 51 16 66 19 16 17 39 -3 41
-35 3 -57 -3 -75 -19 -10 -9 -21 -13 -25 -10 -9 10 -12 97 -2 92 12 -8 22 16
11 27 -18 18 -1 38 39 44 23 4 39 12 40 20 3 45 2 61 -5 72 -9 15 -4 15 27 1z
m-2009 -55 c3 -8 2 -12 -4 -9 -6 3 -10 10 -10 16 0 14 7 11 14 -7z m-1754 -30
c0 -14 -4 -23 -9 -20 -5 3 -7 15 -4 26 7 28 13 25 13 -6z m2052 -8 c3 -14 1
-31 -3 -38 -6 -8 -9 1 -9 25 0 42 6 48 12 13z m968 -81 c5 -13 19 -34 30 -45
34 -34 16 -43 -74 -37 -45 4 -112 2 -151 -3 -101 -13 -154 6 -88 31 38 14 63
38 63 61 0 16 10 18 105 18 103 0 106 -1 115 -25z m-2705 -43 c-6 -7 -35 18
-35 31 0 5 9 2 20 -8 11 -10 18 -20 15 -23z m192 -45 c7 0 10 -4 7 -8 -6 -10
-65 0 -79 13 -6 7 2 7 25 3 19 -5 40 -8 47 -8z m2501 -21 c7 -4 12 -17 12 -29
0 -12 14 -34 32 -50 l33 -28 -95 6 c-52 4 -124 2 -158 -4 -68 -11 -125 -5
-119 12 2 6 18 18 37 28 18 10 39 31 46 47 l12 29 94 -2 c52 -1 100 -5 106 -9z
m23 -168 c6 -24 20 -60 32 -80 11 -21 17 -41 14 -45 -4 -4 -29 0 -56 9 -41 13
-66 14 -143 6 -142 -15 -183 -15 -183 0 0 6 16 20 35 30 26 12 38 27 48 57 7
22 14 46 17 53 3 8 35 12 114 12 l110 0 12 -42z m-1088 6 c26 -9 47 -20 47
-26 0 -5 -6 -6 -12 -2 -7 4 -5 -2 5 -13 21 -24 23 -40 1 -19 -17 18 -54 22
-54 6 0 -5 -4 -10 -9 -10 -5 0 -7 9 -4 20 3 12 -2 29 -12 40 -22 24 -21 24 38
4z m-1058 -4 c-11 -5 -29 -9 -40 -9 -17 -1 -17 1 -5 9 8 5 26 9 40 9 23 0 23
-1 5 -9z m1202 -128 c6 -4 24 -25 38 -46 l26 -39 -31 6 c-17 4 -42 15 -56 24
-21 15 -24 24 -19 53 3 19 9 58 13 85 l6 50 6 -63 c3 -34 10 -66 17 -70z
m-852 45 c18 6 18 7 -1 14 -15 6 -12 8 14 8 17 1 32 -3 32 -9 0 -5 7 -10 15
-10 8 0 12 -6 9 -14 -3 -8 2 -16 13 -19 15 -4 14 -5 -4 -6 -12 0 -24 -5 -27
-10 -6 -9 37 -20 88 -22 25 -1 23 -3 -14 -9 -25 -4 -52 -4 -61 1 -11 6 -21 4
-29 -6 -9 -11 -7 -16 10 -25 29 -15 86 -5 135 25 80 48 170 95 180 95 5 0 -12
-12 -39 -26 -27 -14 -63 -35 -80 -45 -135 -83 -175 -87 -248 -23 -71 62 -77
68 -52 56 12 -6 26 -7 34 -2 11 7 8 11 -13 19 -15 6 -27 15 -27 21 0 6 10 4
24 -5 13 -9 31 -13 41 -8z m475 5 c0 -15 -11 -21 -27 -15 -12 5 -12 7 -1 14
17 11 28 11 28 1z m218 -29 c5 -16 6 -37 1 -48 -7 -18 -8 -17 -7 5 1 14 -2 35
-6 48 -4 12 -5 22 -3 22 3 0 9 -12 15 -27z m-903 -13 c12 -19 -12 -10 -31 11
-19 22 -19 22 3 10 12 -6 25 -16 28 -21z m438 13 c-7 -2 -21 -2 -30 0 -10 3
-4 5 12 5 17 0 24 -2 18 -5z m539 -25 c-7 -7 -12 -20 -12 -29 0 -10 -4 -20 -9
-24 -15 -9 -9 38 7 58 9 9 18 15 20 12 3 -3 0 -11 -6 -17z m1028 -27 c5 -11
10 -29 10 -39 0 -11 16 -39 35 -62 19 -23 32 -46 29 -51 -6 -10 -123 -12 -148
-3 -9 3 -16 12 -16 18 0 18 -21 35 -36 29 -8 -3 -14 -9 -14 -15 0 -5 5 -6 10
-3 6 3 10 0 10 -8 0 -10 -17 -16 -52 -21 -81 -9 -148 -7 -148 5 0 6 12 26 26
44 14 19 28 52 31 74 l6 40 71 4 c176 8 175 8 186 -12z m-1089 -88 l24 -28
-30 25 c-16 14 -32 26 -34 28 -2 1 0 2 6 2 5 0 20 -12 34 -27z m69 17 c13 -9
13 -10 0 -10 -8 0 -22 5 -30 10 -13 9 -13 10 0 10 8 0 22 -5 30 -10z m5 -30
c3 -5 14 -10 24 -10 10 0 25 -8 32 -17 12 -16 12 -17 -1 -7 -23 17 -70 26 -70
14 0 -6 7 -13 16 -17 13 -5 12 -8 -5 -25 -12 -10 -21 -26 -21 -35 0 -9 -3 -13
-6 -10 -4 4 -1 20 6 37 11 26 10 33 -4 49 -13 15 -14 20 -4 24 20 8 26 8 33
-3z m95 -61 c0 -5 -8 -9 -17 -8 -11 0 -13 3 -5 6 6 2 9 10 6 15 -4 7 -2 8 4 4
7 -4 12 -11 12 -17z m1115 -8 c3 -6 -2 -16 -10 -23 -9 -7 -24 -20 -32 -30 -9
-9 -21 -14 -28 -12 -17 7 -6 62 14 67 29 8 50 7 56 -2z m-1185 -4 c0 -2 -10
-12 -22 -23 l-23 -19 19 23 c18 21 26 27 26 19z m1022 -41 c4 -6 8 -28 8 -48
0 -20 5 -40 10 -43 6 -3 10 -1 10 5 0 6 5 8 10 5 16 -10 11 -44 -8 -54 -18
-10 -117 -1 -153 14 -9 3 -19 19 -23 36 -7 37 -21 37 -34 -1 -13 -36 -65 -60
-133 -60 -27 0 -49 2 -49 4 0 2 7 17 15 32 8 16 15 39 15 51 0 12 5 33 11 47
11 23 19 26 78 29 98 5 235 -4 243 -17z m1 -170 l109 -1 29 -37 c25 -30 30
-45 27 -80 l-3 -43 -50 -3 c-64 -4 -120 12 -167 49 -20 16 -39 29 -43 29 -3 0
-3 -17 1 -38 6 -37 5 -38 -43 -58 -58 -25 -165 -62 -213 -74 -19 -5 -55 -16
-79 -25 -53 -19 -95 -16 -99 7 -2 9 13 34 32 56 29 32 36 48 36 80 0 90 30
117 130 114 59 -2 128 13 147 32 4 4 24 4 43 0 19 -4 84 -8 143 -8z m-552 -87
c32 -17 23 -39 -16 -39 l-35 0 0 -54 c0 -99 -26 -116 -60 -39 -25 56 -25 140
-1 147 22 6 89 -2 112 -15z m629 -98 c58 -3 111 -10 118 -14 6 -5 12 -21 12
-37 0 -36 -26 -52 -70 -44 -23 5 -34 2 -44 -11 -10 -14 -21 -17 -49 -12 -38 6
-57 -7 -38 -26 16 -16 14 -49 -5 -75 -11 -16 -25 -22 -54 -22 l-38 0 -7 -50
c-4 -27 -10 -50 -14 -50 -11 0 -41 67 -41 90 0 13 -13 26 -37 37 -27 13 -44
31 -60 63 -12 25 -22 50 -23 56 0 7 35 21 78 32 60 17 82 28 102 52 19 23 30
29 45 24 11 -4 67 -10 125 -13z m178 -471 l0 -35 -13 30 c-16 33 -19 78 -7 89
9 9 19 -36 20 -84z"/>
<path d="M6460 6680 c-8 -5 -12 -12 -9 -15 4 -3 12 1 19 10 14 17 11 19 -10 5z"/>
<path d="M6390 6400 c0 -13 18 -22 24 -11 3 5 -1 11 -9 15 -8 3 -15 1 -15 -4z"/>
<path d="M5790 6070 c8 -5 20 -10 25 -10 6 0 3 5 -5 10 -8 5 -19 10 -25 10 -5
0 -3 -5 5 -10z"/>
<path d="M2668 5733 c7 -3 16 -2 19 1 4 3 -2 6 -13 5 -11 0 -14 -3 -6 -6z"/>
<path d="M5398 5705 c12 -15 22 -35 23 -44 0 -9 5 -3 11 12 6 18 15 26 24 23
8 -3 14 -3 14 0 0 5 -25 15 -69 29 l-24 7 21 -27z"/>
<path d="M2905 5710 c3 -5 13 -6 22 -3 10 4 14 2 10 -4 -5 -7 1 -9 15 -5 11 3
19 1 16 -4 -4 -5 27 -9 70 -10 83 -1 65 12 -23 17 l-50 2 50 7 c44 6 41 7 -33
8 -45 0 -80 -4 -77 -8z"/>
<path d="M5130 5706 c0 -2 8 -10 18 -17 15 -13 16 -12 3 4 -13 16 -21 21 -21
13z"/>
<path d="M3180 5680 c8 -5 25 -10 37 -10 12 0 27 -8 32 -17 9 -15 10 -14 7 7
-2 22 -8 25 -47 28 -32 2 -40 0 -29 -8z"/>
<path d="M2785 5671 c-6 -10 51 -28 110 -36 28 -4 73 -16 102 -27 29 -12 59
-18 69 -14 16 6 16 8 4 16 -9 6 -16 6 -18 0 -2 -5 -11 -6 -19 -3 -34 13 19 20
56 8 48 -16 151 -28 131 -15 -8 5 -32 10 -53 10 -21 0 -60 11 -87 25 -54 28
-75 32 -64 13 6 -10 4 -10 -7 -2 -8 6 -30 15 -49 19 -47 10 -169 14 -175 6z"/>
<path d="M3130 5673 c8 -3 24 -10 35 -15 20 -9 20 -9 1 6 -11 9 -27 16 -35 15
-14 0 -14 -1 -1 -6z"/>
<path d="M4910 5646 c0 -2 7 -7 16 -10 8 -3 12 -2 9 4 -6 10 -25 14 -25 6z"/>
<path d="M5120 5636 c0 -2 7 -7 16 -10 8 -3 12 -2 9 4 -6 10 -25 14 -25 6z"/>
<path d="M3202 5559 c2 -7 10 -15 17 -17 8 -3 12 1 9 9 -2 7 -10 15 -17 17 -8
3 -12 -1 -9 -9z"/>
<path d="M5250 5556 c0 -2 8 -10 18 -17 15 -13 16 -12 3 4 -13 16 -21 21 -21
13z"/>
<path d="M4990 5547 c0 -3 12 -12 26 -22 15 -9 23 -12 20 -6 -7 11 -46 35 -46
28z"/>
<path d="M3124 5528 c-3 -4 -11 -5 -19 -1 -8 3 -15 0 -15 -5 0 -7 22 -10 55
-9 30 1 55 5 55 8 0 10 -70 16 -76 7z"/>
<path d="M3020 5522 c0 -4 19 -15 43 -25 26 -11 36 -13 27 -4 -20 17 -70 39
-70 29z"/>
<path d="M3240 5456 c0 -2 7 -6 15 -10 8 -3 15 -1 15 4 0 6 -7 10 -15 10 -8 0
-15 -2 -15 -4z"/>
<path d="M3344 5440 c22 -11 42 -20 45 -20 12 0 -36 28 -59 34 -14 4 -8 -2 14
-14z"/>
<path d="M3195 5410 l-20 -9 20 1 c11 0 31 4 45 8 l25 8 -25 0 c-14 0 -34 -3
-45 -8z"/>
<path d="M3285 5400 c3 -5 27 -24 53 -42 33 -22 42 -25 28 -10 -20 23 -91 69
-81 52z"/>
<path d="M3406 5399 c3 -5 17 -9 32 -9 15 0 38 -3 51 -7 l23 -6 -23 -13 c-33
-18 0 -19 35 -1 25 14 25 14 -32 26 -87 19 -92 20 -86 10z"/>
<path d="M4290 5400 c8 -5 20 -10 25 -10 6 0 3 5 -5 10 -8 5 -19 10 -25 10 -5
0 -3 -5 5 -10z"/>
<path d="M4573 5393 c9 -2 23 -2 30 0 6 3 -1 5 -18 5 -16 0 -22 -2 -12 -5z"/>
<path d="M4015 5380 c27 -12 43 -12 25 0 -8 5 -22 9 -30 9 -10 0 -8 -3 5 -9z"/>
<path d="M3623 5363 c9 -2 23 -2 30 0 6 3 -1 5 -18 5 -16 0 -22 -2 -12 -5z"/>
<path d="M4250 5351 c0 -8 41 -23 47 -17 2 1 -8 8 -22 14 -14 6 -25 8 -25 3z"/>
<path d="M4120 5340 c-10 -7 4 -8 45 -4 33 4 62 8 64 10 10 9 -96 3 -109 -6z"/>
<path d="M4520 5336 c0 -2 7 -6 15 -10 8 -3 15 -1 15 4 0 6 -7 10 -15 10 -8 0
-15 -2 -15 -4z"/>
<path d="M4830 5305 c0 -14 -4 -25 -10 -25 -5 0 -7 -7 -4 -15 4 -8 11 -15 16
-15 6 0 8 7 4 15 -3 8 -1 15 4 15 5 0 10 -12 12 -27 3 -22 5 -18 9 15 4 35 1
46 -13 53 -15 8 -18 6 -18 -16z"/>
<path d="M3459 5290 c13 -11 27 -20 32 -20 18 0 8 10 -23 25 l-33 16 24 -21z"/>
<path d="M3520 5244 c0 -7 52 -25 57 -20 2 2 -10 8 -26 14 -17 6 -31 9 -31 6z"/>
<path d="M3785 5226 c-71 -12 -70 -16 4 -31 l33 -7 -21 -21 c-17 -17 -23 -19
-33 -8 -11 10 -10 12 1 9 7 -2 15 2 17 7 2 6 -13 11 -33 11 -21 1 -57 5 -79 9
-30 5 -44 4 -49 -5 -6 -10 -1 -12 24 -7 22 5 43 1 64 -10 l32 -16 -29 -8 c-16
-5 -36 -5 -45 0 -9 4 -32 4 -51 1 l-35 -6 29 -9 c15 -4 58 -5 94 -2 42 4 70 3
79 -5 10 -8 12 -7 8 5 -8 20 12 32 30 17 12 -10 13 -7 6 18 -9 29 -1 55 15 52
5 -1 10 3 12 9 2 6 2 10 0 10 -1 -1 -34 -7 -73 -13z"/>
<path d="M4095 5220 c-3 -5 -1 -10 4 -10 6 0 11 5 11 10 0 6 -2 10 -4 10 -3 0
-8 -4 -11 -10z"/>
<path d="M4148 5223 c7 -3 16 -2 19 1 4 3 -2 6 -13 5 -11 0 -14 -3 -6 -6z"/>
<path d="M4035 5210 c-13 -5 -14 -9 -5 -9 8 0 24 4 35 9 13 5 14 9 5 9 -8 0
-24 -4 -35 -9z"/>
<path d="M4231 5214 c-1 -6 -15 -17 -33 -26 l-32 -15 27 -5 c36 -7 58 11 47
37 -5 11 -9 15 -9 9z"/>
<path d="M3963 5193 c9 -2 23 -2 30 0 6 3 -1 5 -18 5 -16 0 -22 -2 -12 -5z"/>
<path d="M4692 5179 c2 -7 10 -15 17 -17 8 -3 12 1 9 9 -2 7 -10 15 -17 17 -8
3 -12 -1 -9 -9z"/>
<path d="M3858 5113 c6 -2 9 -10 6 -15 -4 -6 -3 -8 3 -5 12 8 53 -20 53 -36 0
-13 66 -37 97 -37 10 1 34 10 53 21 19 11 26 17 15 13 -47 -16 -75 -16 -102 4
-29 20 -120 63 -132 61 -3 0 0 -3 7 -6z"/>
<path d="M3843 5059 c26 -17 47 -35 47 -39 0 -4 7 -11 17 -14 9 -4 -1 13 -23
36 -21 24 -42 40 -45 35 -4 -5 -10 -4 -13 2 -4 6 -13 11 -19 11 -7 0 9 -14 36
-31z"/>
<path d="M3650 5020 c8 -5 28 -10 43 -10 16 0 26 -3 24 -7 -3 -5 6 -9 19 -9
33 -2 30 5 -11 22 -40 16 -100 20 -75 4z"/>
<path d="M4198 5023 c7 -3 16 -2 19 1 4 3 -2 6 -13 5 -11 0 -14 -3 -6 -6z"/>
<path d="M4065 5009 c-16 -6 -14 -8 13 -8 33 -1 41 4 20 12 -7 2 -22 1 -33 -4z"/>
<path d="M3381 4994 c0 -11 3 -14 6 -6 3 7 2 16 -1 19 -3 4 -6 -2 -5 -13z"/>
<path d="M3471 4958 c17 -32 34 -60 38 -63 15 -9 6 30 -11 50 -9 11 -26 31
-37 45 -13 16 -10 4 10 -32z"/>
<path d="M3138 4983 c6 -2 12 -11 12 -18 0 -7 7 -15 15 -19 16 -6 19 3 9 28
-3 9 -16 16 -28 15 -11 0 -15 -3 -8 -6z"/>
<path d="M3849 4953 c21 -16 46 -16 59 0 8 9 1 12 -32 12 -36 0 -40 -2 -27
-12z"/>
<path d="M3680 4931 c0 -25 4 -29 37 -34 45 -8 55 -1 19 12 -33 13 -34 25 -1
17 37 -9 30 1 -11 19 -46 19 -44 20 -44 -14z"/>
<path d="M4741 4933 c7 -12 15 -20 18 -17 3 2 -3 12 -13 22 -17 16 -18 16 -5
-5z"/>
<path d="M4042 4919 c-13 -5 -20 -13 -17 -19 8 -13 55 -13 55 0 0 6 15 10 33
11 30 1 31 1 7 9 -33 11 -50 11 -78 -1z"/>
<path d="M3818 4893 c7 -3 16 -2 19 1 4 3 -2 6 -13 5 -11 0 -14 -3 -6 -6z"/>
<path d="M3588 4883 c17 -2 47 -2 65 0 17 2 3 4 -33 4 -36 0 -50 -2 -32 -4z"/>
<path d="M6290 5265 c0 -10 29 -24 34 -17 3 6 -3 12 -14 15 -11 3 -20 4 -20 2z"/>
<path d="M6070 5239 c0 -5 5 -7 10 -4 6 3 10 8 10 11 0 2 -4 4 -10 4 -5 0 -10
-5 -10 -11z"/>
<path d="M6257 5210 c-3 -11 -11 -19 -17 -18 -7 2 -15 -3 -17 -9 -3 -8 4 -13
16 -13 21 0 54 37 45 52 -9 14 -21 9 -27 -12z"/>
<path d="M6295 5150 c-3 -5 -1 -10 4 -10 6 0 11 5 11 10 0 6 -2 10 -4 10 -3 0
-8 -4 -11 -10z"/>
<path d="M6580 5180 c-6 -11 -15 -18 -21 -15 -15 10 -10 -5 11 -32 15 -19 20
-21 20 -9 0 9 5 16 10 16 6 0 8 -11 4 -27 l-7 -28 32 29 c35 33 38 48 15 70
-21 22 -51 20 -64 -4z"/>
<path d="M6465 5126 c-17 -12 -17 -15 -4 -28 27 -27 53 -37 72 -27 23 14 21
35 -5 53 -28 20 -39 20 -63 2z"/>
<path d="M6425 5080 c3 -5 13 -10 21 -10 8 0 12 5 9 10 -3 6 -13 10 -21 10 -8
0 -12 -4 -9 -10z"/>
<path d="M6605 5075 c-34 -15 -52 -60 -27 -70 20 -7 102 24 102 40 0 11 -32
46 -41 44 -2 0 -17 -7 -34 -14z"/>
<path d="M6711 5043 c23 -30 43 -42 66 -43 12 0 23 -5 25 -11 2 -6 13 -10 23
-7 17 3 15 6 -12 23 -18 11 -33 25 -33 31 0 12 -31 24 -64 24 -16 0 -17 -2 -5
-17z"/>
<path d="M6666 5012 c-3 -6 6 -15 21 -20 27 -10 27 -10 -12 -13 -22 -1 -48 -3
-57 -2 -24 0 -23 -9 6 -36 22 -20 24 -21 30 -4 5 13 9 14 15 5 12 -20 38 -4
50 30 6 17 10 32 9 34 -10 9 -57 14 -62 6z"/>
<path d="M4813 4666 c9 -7 17 -18 17 -24 0 -5 7 -13 16 -16 22 -9 24 -8 18 9
-4 8 -10 12 -15 9 -5 -3 -9 1 -9 9 0 8 -7 18 -16 21 -25 10 -30 6 -11 -8z"/>
<path d="M7120 4339 c-40 -25 -50 -36 -90 -104 -60 -101 -25 -242 67 -270 27
-7 30 -2 63 125 13 47 31 111 41 142 24 72 24 91 1 111 -24 22 -40 21 -82 -4z"/>
<path d="M6346 3500 c11 -4 34 -24 52 -44 38 -44 42 -92 12 -141 l-21 -33 30
-21 c16 -12 35 -21 43 -21 16 -1 45 -17 82 -47 l27 -21 -23 -57 c-18 -44 -40
-73 -95 -125 -40 -38 -73 -70 -73 -73 0 -8 161 89 199 120 23 19 46 28 70 28
31 0 36 3 39 25 5 40 -45 99 -98 119 -52 19 -60 40 -31 77 12 15 21 40 21 55
0 25 -4 29 -27 29 -36 0 -45 7 -77 58 -31 50 -79 82 -121 81 -26 0 -27 -1 -9
-9z"/>
<path d="M6130 3388 c0 -7 -23 -59 -51 -115 l-52 -103 -70 0 c-69 0 -177 -26
-177 -42 0 -4 4 -8 9 -8 5 0 12 -12 15 -27 4 -16 37 -56 76 -93 l70 -66 -20
-53 c-23 -58 -31 -172 -14 -178 6 -2 49 21 95 52 46 31 94 58 105 61 23 6 87
-23 171 -76 87 -56 112 -36 87 70 -9 39 -14 74 -11 76 3 3 -6 16 -19 29 -24
24 -31 45 -15 45 30 0 161 143 161 175 0 20 -57 35 -146 40 l-79 4 -27 53
c-71 138 -108 192 -108 156z m21 -170 c0 -18 8 -55 17 -83 l17 -50 68 3 c37 2
67 1 67 -2 0 -3 -25 -22 -55 -42 -30 -20 -55 -38 -55 -39 0 -1 11 -28 25 -59
14 -31 22 -56 19 -56 -4 0 -29 16 -55 35 -27 19 -55 35 -63 35 -8 0 -36 -16
-61 -36 -26 -19 -49 -34 -51 -32 -2 2 6 28 17 58 l20 54 -24 18 c-14 10 -36
27 -49 38 l-23 19 62 1 62 0 21 66 c11 36 20 75 20 85 0 33 20 20 21 -13z"/>
<path d="M5650 2980 c-22 -17 -23 -22 -12 -39 19 -32 16 -34 -42 -28 -54 5
-103 28 -120 56 -7 11 -12 6 -23 -20 -31 -72 -10 -142 54 -184 44 -29 100 -35
198 -19 95 16 135 15 147 -1 4 -5 8 4 8 21 0 34 -16 52 -70 79 -48 24 -80 54
-73 71 6 16 73 20 73 4 0 -5 7 -10 15 -10 33 0 4 45 -45 70 -49 25 -78 25
-110 0z"/>
</g>
</svg>
